<?xml version="1.0" encoding="utf-8"?><svg xmlns="http://www.w3.org/2000/svg" xmlns:xlink="http://www.w3.org/1999/xlink" width="1920" height="1080" preserveAspectRatio="xMidYMid" viewBox="0 0 1920 1080" style="z-index:1;margin-right:-2px;display:block;background-repeat-y:initial;background-repeat-x:initial;background-color:rgb(39, 78, 88);animation-play-state:paused" ><g transform="translate(960,540) scale(1,1) translate(-960,-540)" style="transform:matrix(1, 0, 0, 1, 0, 0);animation-play-state:paused" ><path d="M -100 616.28 C -42.99 636.37 -41.57 626.6 11.58 626.6 S 69.03 629.75 123.16 629.75 S 181.95 625.19 234.74 625.19 S 293.85 611.4 346.32 611.4 S 404.47 625.47 457.89 625.47 S 518.03 617.98 569.47 617.98 S 629.52 612.98 681.05 612.98 S 737.9 623.05 792.63 623.05 S 849.54 595.74 904.21 595.74 S 961.55 606.13 1015.79 606.13 S 1076.03 603.98 1127.37 603.98 S 1184.9 635.22 1238.95 635.22 S 1297.86 609.48 1350.53 609.48 S 1410.15 600.09 1462.11 600.09 S 1522.24 632.33 1573.68 632.33 S 1632.19 634.7 1685.26 634.7 S 1744.18 594.04 1796.84 594.04 S 1855.34 617.33 1908.42 617.33 S 1966.33 602.03 2020 602.03 S 2077.35 605.92 2131.58 605.92 L 2020 1080 L -100 1080 Z" fill="#274e58" stroke-width="0" transform="matrix(1,0,0,1,0,0)" style="transform:matrix(1, 0, 0, 1, 0, 0);animation-play-state:paused" ></path>
<path d="M -100 649.86 C -40.43 652.95 -39.58 630.9 13.88 630.9 S 74.52 634.71 127.77 634.71 S 186.27 633.08 241.65 633.08 S 300.46 641.11 355.54 641.11 S 414.42 664.67 469.42 664.67 S 530.84 642.56 583.31 642.56 S 643.68 648.09 697.19 648.09 S 758.2 644.93 811.07 644.93 S 871.18 661.89 924.96 661.89 S 984.08 631.58 1038.84 631.58 S 1099.07 638.08 1152.73 638.08 S 1213.95 620.78 1266.61 620.78 S 1325.93 633.86 1380.5 633.86 S 1441.05 622.82 1494.38 622.82 S 1554.97 625.98 1608.26 625.98 S 1665.52 629.16 1722.15 629.16 S 1782.93 644.37 1836.03 644.37 S 1894.83 653.47 1949.92 653.47 S 2009.08 622.55 2063.8 622.55 L 2020 1080 L -100 1080 Z" fill="#305962" stroke-width="0" transform="matrix(1,0,0,1,0.7108021378517151,0)" style="transform:matrix(1, 0, 0, 1, 0.710802, 0);animation-play-state:paused" ></path>
<path d="M -100 650.17 C -37.81 651.01 -37.96 676.39 16.29 676.39 S 78.54 685.94 132.57 685.94 S 195.14 677.28 248.86 677.28 S 311.18 655.69 365.15 655.69 S 423.48 663.45 481.43 663.45 S 543.66 647.47 597.72 647.47 S 659.71 663.13 714.01 663.13 S 772.57 651.56 830.3 651.56 S 893.01 651.72 946.58 651.72 S 1006.31 659.75 1062.87 659.75 S 1122.78 656.38 1179.16 656.38 S 1237.54 654.95 1295.44 654.95 S 1358.03 649.65 1411.73 649.65 S 1473.86 677.95 1528.02 677.95 S 1587.66 657.31 1644.3 657.31 S 1704.52 663.18 1760.59 663.18 S 1823.1 663 1876.88 663 S 1937.25 678.21 1993.16 678.21 S 2052.43 685.58 2109.45 685.58 L 2020 1080 L -100 1080 Z" fill="#3a636c" stroke-width="0" transform="matrix(1,0,0,1,2.360137462615967,0)" style="transform:matrix(1, 0, 0, 1, 2.36014, 0);animation-play-state:paused" ></path>
<path d="M -100 679.1 C -36.97 666.78 -40.16 692.55 18.79 692.55 S 78.94 689.68 137.59 689.68 S 200.9 684.31 256.38 684.31 S 317.57 679.95 375.17 679.95 S 437.32 680.67 493.97 680.67 S 554.95 698.18 612.76 698.18 S 675.12 693.76 731.55 693.76 S 792.94 707.5 850.34 707.5 S 913.93 705.71 969.14 705.71 S 1032.25 676.29 1087.93 676.29 S 1147.97 717.5 1206.72 717.5 S 1269.75 683.1 1325.52 683.1 S 1387.24 691.21 1444.31 691.21 S 1507.11 687.81 1563.1 687.81 S 1622.9 697.81 1681.9 697.81 S 1743.53 702.93 1800.69 702.93 S 1862.46 704.47 1919.48 704.47 S 1980.04 677.05 2038.28 677.05 L 2020 1080 L -100 1080 Z" fill="#436e76" stroke-width="0" transform="matrix(1,0,0,1,4.45139217376709,0)" style="transform:matrix(1, 0, 0, 1, 4.45139, 0);animation-play-state:paused" ></path>
<path d="M -100 689.21 C -38.21 728.75 -37.49 721.44 21.41 721.44 S 86.49 732.83 142.82 732.83 S 206.67 707.48 264.23 707.48 S 325.09 713.77 385.64 713.77 S 450.28 735.71 507.05 735.71 S 570.8 704.16 628.46 704.16 S 690.44 747.4 749.87 747.4 S 815.14 735.64 871.28 735.64 S 936.15 729.28 992.69 729.28 S 1054.36 733.76 1114.1 733.76 S 1177.6 745.42 1235.51 745.42 S 1299.14 699.45 1356.92 699.45 S 1422.18 744.79 1478.33 744.79 S 1542.61 704.97 1599.74 704.97 S 1663.88 718.8 1721.15 718.8 S 1782.37 742.45 1842.56 742.45 S 1907.31 720.01 1963.96 720.01 S 2029.25 688.5 2085.37 688.5 L 2020 1080 L -100 1080 Z" fill="#4d7981" stroke-width="0" transform="matrix(1,0,0,1,6.625443458557129,0)" style="transform:matrix(1, 0, 0, 1, 6.62544, 0);animation-play-state:paused" ></path>
<path d="M -100 745.06 C -36.38 717.4 -34.74 747.84 24.14 747.84 S 89.92 750.68 148.29 750.68 S 210.41 763.37 272.43 763.37 S 335.17 706.19 396.58 706.19 S 461.25 736.85 520.72 736.85 S 583.97 741.56 644.86 741.56 S 710.46 746.11 769.01 746.11 S 835.1 729.2 893.15 729.2 S 956 753.36 1017.3 753.36 S 1082.61 732.45 1141.44 732.45 S 1207.37 730.13 1265.59 730.13 S 1332.11 721.9 1389.73 721.9 S 1454.13 719.52 1513.87 719.52 S 1578.66 748.16 1638.02 748.16 S 1704.19 730.87 1762.16 730.87 S 1825.74 718.32 1886.31 718.32 S 1952.1 706.38 2010.45 706.38 S 2076.08 761.5 2134.59 761.5 L 2020 1080 L -100 1080 Z" fill="#57858b" stroke-width="0" transform="matrix(1,0,0,1,8.545723915100098,0)" style="transform:matrix(1, 0, 0, 1, 8.54572, 0);animation-play-state:paused" ></path>
<path d="M -100 766.64 C -34.41 766.76 -34 794.69 27 794.69 S 91.92 772.18 154.01 772.18 S 219.29 737.56 281.01 737.56 S 345.28 762.41 408.02 762.41 S 472.88 766.62 535.02 766.62 S 601.4 771.1 662.03 771.1 S 726.45 763.11 789.03 763.11 S 854.05 770.95 916.04 770.95 S 983.15 781.97 1043.04 781.97 S 1110.47 755.83 1170.05 755.83 S 1237.16 740.44 1297.05 740.44 S 1364.19 762.39 1424.06 762.39 S 1488.45 729.37 1551.06 729.37 S 1615.68 799.17 1678.06 799.17 S 1744.47 768.9 1805.07 768.9 S 1873.07 743.2 1932.07 743.2 S 1997.99 769.76 2059.08 769.76 L 2020 1080 L -100 1080 Z" fill="#619096" stroke-width="0" transform="matrix(1,0,0,1,9.80345630645752,0)" style="transform:matrix(1, 0, 0, 1, 9.80346, 0);animation-play-state:paused" ></path>
<path d="M -100 757.6 C -33.62 782.73 -31.81 795.72 30 795.72 S 96.3 761.01 160 761.01 S 229.29 755.24 290 755.24 S 355.89 788.58 420 788.58 S 488.16 792.63 550 792.63 S 615.15 795.43 680 795.43 S 745.43 761.29 810 761.29 S 876.42 793.46 940 793.46 S 1009.03 827.01 1070 827.01 S 1136.27 782.27 1200 782.27 S 1266.16 821.99 1330 821.99 S 1399.31 774.2 1460 774.2 S 1528.48 802.15 1590 802.15 S 1655.49 763.83 1720 763.83 S 1788.42 829.25 1850 829.25 S 1916.95 796.72 1980 796.72 S 2047.8 761.58 2110 761.58 L 2020 1080 L -100 1080 Z" fill="#6b9ca1" stroke-width="0" transform="matrix(1,0,0,1,9.80345630645752,0)" style="transform:matrix(1, 0, 0, 1, 9.80346, 0);animation-play-state:paused" ></path>
<path d="M -100 852.77 C -31.2 850.79 -30.2 843.04 33.14 843.04 S 101.96 804.18 166.28 804.18 S 234.49 820.74 299.42 820.74 S 369.66 791.61 432.56 791.61 S 500.35 779.64 565.7 779.64 S 635.3 813.05 698.84 813.05 S 766.26 844.85 831.98 844.85 S 900.49 811.63 965.12 811.63 S 1036.34 802.3 1098.26 802.3 S 1168.44 775.1 1231.4 775.1 S 1298.15 829.79 1364.54 829.79 S 1431.23 825.19 1497.68 825.19 S 1568.41 775.32 1630.82 775.32 S 1699.17 805.87 1763.96 805.87 S 1833.47 831.06 1897.1 831.06 S 1968.13 801.48 2030.24 801.48 L 2020 1080 L -100 1080 Z" fill="#76a8ab" stroke-width="0" transform="matrix(1,0,0,1,8.54572582244873,0)" style="transform:matrix(1, 0, 0, 1, 8.54573, 0);animation-play-state:paused" ></path>
<path d="M -100 801.36 C -28.6 809.4 -28.05 866.04 36.44 866.04 S 108.77 879.37 172.87 879.37 S 241.98 871.17 309.31 871.17 S 377.96 828.41 445.74 828.41 S 517.82 831.73 582.18 831.73 S 654.24 822.3 718.61 822.3 S 788.62 841.46 855.05 841.46 S 926.84 830.35 991.49 830.35 S 1063.64 873.86 1127.92 873.86 S 1197.08 796.6 1264.36 796.6 S 1335.29 829.23 1400.79 829.23 S 1471.41 823.56 1537.23 823.56 S 1608.3 815.19 1673.66 815.19 S 1744.09 822.68 1810.1 822.68 S 1881.68 837.01 1946.53 837.01 S 2019.3 882.97 2082.97 882.97 L 2020 1080 L -100 1080 Z" fill="#81b4b6" stroke-width="0" transform="matrix(1,0,0,1,6.625445365905762,0)" style="transform:matrix(1, 0, 0, 1, 6.62545, 0);animation-play-state:paused" ></path>
<path d="M -100 843.52 C -29.02 832.89 -26.68 856.86 39.9 856.86 S 113.91 896.17 179.8 896.17 S 252.05 860.7 319.7 860.7 S 393.14 820.43 459.59 820.43 S 533.15 834.4 599.49 834.4 S 672.8 893.51 739.39 893.51 S 810.06 877.5 879.29 877.5 S 953.51 856.61 1019.19 856.61 S 1089.45 901.29 1159.09 901.29 S 1230.81 848.95 1298.98 848.95 S 1371.33 878.11 1438.88 878.11 S 1510.27 827.65 1578.78 827.65 S 1652.93 894.73 1718.68 894.73 S 1789.92 842.16 1858.58 842.16 S 1930.27 853.55 1998.48 853.55 S 2071.46 840.78 2138.38 840.78 L 2020 1080 L -100 1080 Z" fill="#8bc0c1" stroke-width="0" transform="matrix(1,0,0,1,4.451394081115723,0)" style="transform:matrix(1, 0, 0, 1, 4.45139, 0);animation-play-state:paused" ></path>
<path d="M -100 869.46 C -24.41 846.18 -23.71 930.92 43.54 930.92 S 116.56 882.74 187.08 882.74 S 261.48 850.24 330.63 850.24 S 406.44 873.82 474.17 873.82 S 550.39 872.64 617.71 872.64 S 691.34 870.05 761.25 870.05 S 836.29 864.61 904.79 864.61 S 977.45 920.56 1048.33 920.56 S 1124.05 877.65 1191.88 877.65 S 1265.51 860.49 1335.42 860.49 S 1407.2 915.48 1478.96 915.48 S 1551.75 846.86 1622.5 846.86 S 1696.08 924.57 1766.04 924.57 S 1838.91 880.23 1909.58 880.23 S 1983.48 851.41 2053.13 851.41 L 2020 1080 L -100 1080 Z" fill="#96cccc" stroke-width="0" transform="matrix(1,0,0,1,2.360140800476074,0)" style="transform:matrix(1, 0, 0, 1, 2.36014, 0);animation-play-state:paused" ></path>
<path d="M -100 965.3 C -21.79 920.91 -24.27 928.41 47.38 928.41 S 122.51 871.03 194.76 871.03 S 272.52 865.53 342.14 865.53 S 418 920.76 489.52 920.76 S 567.12 964.47 636.9 964.47 S 713.06 877.6 784.28 877.6 S 860.16 958.01 931.66 958.01 S 1006.32 881.51 1079.04 881.51 S 1157.18 921.54 1226.42 921.54 S 1302.98 948.26 1373.8 948.26 S 1450.13 954.9 1521.18 954.9 S 1599.14 900.32 1668.56 900.32 S 1746.13 923.5 1815.94 923.5 S 1894.21 885.43 1963.32 885.43 S 2040.22 886.04 2110.7 886.04 L 2020 1080 L -100 1080 Z" fill="#a2d8d7" stroke-width="0" transform="matrix(1,0,0,1,0.7108039855957031,0)" style="transform:matrix(1, 0, 0, 1, 0.710804, 0);animation-play-state:paused" ></path></g></svg>